<svg width="157" height="28" viewBox="0 0 157 28" fill="none" xmlns="http://www.w3.org/2000/svg">
<path d="M41.43 19C41.3234 19 41.2274 18.9627 41.142 18.888C41.0674 18.8027 41.03 18.7067 41.03 18.6V10.984L38.838 12.664C38.742 12.7387 38.6407 12.7653 38.534 12.744C38.438 12.7227 38.3527 12.664 38.278 12.568L37.334 11.336C37.27 11.24 37.2434 11.1387 37.254 11.032C37.2754 10.9147 37.3394 10.824 37.446 10.76L41.126 7.912C41.19 7.86933 41.2487 7.84267 41.302 7.832C41.366 7.81067 41.4354 7.8 41.51 7.8H43.51C43.6274 7.8 43.7234 7.83733 43.798 7.912C43.8727 7.98667 43.91 8.08267 43.91 8.2V18.6C43.91 18.7067 43.8727 18.8027 43.798 18.888C43.7234 18.9627 43.6274 19 43.51 19H41.43ZM50.3752 19.16C49.6072 19.16 48.9405 19.0533 48.3752 18.84C47.8205 18.616 47.3565 18.312 46.9832 17.928C46.6098 17.544 46.3272 17.096 46.1352 16.584C45.9432 16.072 45.8312 15.5227 45.7992 14.936C45.7885 14.648 45.7778 14.3227 45.7672 13.96C45.7672 13.5867 45.7672 13.2133 45.7672 12.84C45.7778 12.456 45.7885 12.1147 45.7992 11.816C45.8312 11.2293 45.9432 10.6853 46.1352 10.184C46.3378 9.672 46.6258 9.22933 46.9992 8.856C47.3832 8.472 47.8525 8.17333 48.4072 7.96C48.9725 7.74667 49.6285 7.64 50.3752 7.64C51.1325 7.64 51.7885 7.74667 52.3432 7.96C52.9085 8.17333 53.3778 8.472 53.7512 8.856C54.1245 9.22933 54.4125 9.672 54.6152 10.184C54.8178 10.6853 54.9352 11.2293 54.9672 11.816C54.9778 12.1147 54.9832 12.456 54.9832 12.84C54.9938 13.2133 54.9938 13.5867 54.9832 13.96C54.9832 14.3227 54.9778 14.648 54.9672 14.936C54.9352 15.5227 54.8178 16.072 54.6152 16.584C54.4232 17.096 54.1405 17.544 53.7672 17.928C53.4045 18.312 52.9405 18.616 52.3752 18.84C51.8205 19.0533 51.1538 19.16 50.3752 19.16ZM50.3752 16.84C50.9298 16.84 51.3298 16.664 51.5752 16.312C51.8312 15.9493 51.9645 15.464 51.9752 14.856C51.9965 14.5467 52.0072 14.2213 52.0072 13.88C52.0178 13.5387 52.0178 13.1973 52.0072 12.856C52.0072 12.5147 51.9965 12.2 51.9752 11.912C51.9645 11.3253 51.8312 10.8507 51.5752 10.488C51.3298 10.1253 50.9298 9.93867 50.3752 9.928C49.8312 9.93867 49.4312 10.1253 49.1752 10.488C48.9298 10.8507 48.7965 11.3253 48.7752 11.912C48.7752 12.2 48.7698 12.5147 48.7592 12.856C48.7592 13.1973 48.7592 13.5387 48.7592 13.88C48.7698 14.2213 48.7752 14.5467 48.7752 14.856C48.7965 15.464 48.9352 15.9493 49.1912 16.312C49.4472 16.664 49.8418 16.84 50.3752 16.84ZM61.2502 19.16C60.4822 19.16 59.8155 19.0533 59.2502 18.84C58.6955 18.616 58.2315 18.312 57.8582 17.928C57.4848 17.544 57.2022 17.096 57.0102 16.584C56.8182 16.072 56.7062 15.5227 56.6742 14.936C56.6635 14.648 56.6528 14.3227 56.6422 13.96C56.6422 13.5867 56.6422 13.2133 56.6422 12.84C56.6528 12.456 56.6635 12.1147 56.6742 11.816C56.7062 11.2293 56.8182 10.6853 57.0102 10.184C57.2128 9.672 57.5008 9.22933 57.8742 8.856C58.2582 8.472 58.7275 8.17333 59.2822 7.96C59.8475 7.74667 60.5035 7.64 61.2502 7.64C62.0075 7.64 62.6635 7.74667 63.2182 7.96C63.7835 8.17333 64.2528 8.472 64.6262 8.856C64.9995 9.22933 65.2875 9.672 65.4902 10.184C65.6928 10.6853 65.8102 11.2293 65.8422 11.816C65.8528 12.1147 65.8582 12.456 65.8582 12.84C65.8688 13.2133 65.8688 13.5867 65.8582 13.96C65.8582 14.3227 65.8528 14.648 65.8422 14.936C65.8102 15.5227 65.6928 16.072 65.4902 16.584C65.2982 17.096 65.0155 17.544 64.6422 17.928C64.2795 18.312 63.8155 18.616 63.2502 18.84C62.6955 19.0533 62.0288 19.16 61.2502 19.16ZM61.2502 16.84C61.8048 16.84 62.2048 16.664 62.4502 16.312C62.7062 15.9493 62.8395 15.464 62.8502 14.856C62.8715 14.5467 62.8822 14.2213 62.8822 13.88C62.8928 13.5387 62.8928 13.1973 62.8822 12.856C62.8822 12.5147 62.8715 12.2 62.8502 11.912C62.8395 11.3253 62.7062 10.8507 62.4502 10.488C62.2048 10.1253 61.8048 9.93867 61.2502 9.928C60.7062 9.93867 60.3062 10.1253 60.0502 10.488C59.8048 10.8507 59.6715 11.3253 59.6502 11.912C59.6502 12.2 59.6448 12.5147 59.6342 12.856C59.6342 13.1973 59.6342 13.5387 59.6342 13.88C59.6448 14.2213 59.6502 14.5467 59.6502 14.856C59.6715 15.464 59.8102 15.9493 60.0662 16.312C60.3222 16.664 60.7168 16.84 61.2502 16.84ZM68.2212 19C68.1038 19 68.0078 18.9627 67.9332 18.888C67.8585 18.8027 67.8212 18.7067 67.8212 18.6V8.2C67.8212 8.08267 67.8585 7.98667 67.9332 7.912C68.0078 7.83733 68.1038 7.8 68.2212 7.8H70.2372C70.3545 7.8 70.4505 7.83733 70.5252 7.912C70.5998 7.98667 70.6372 8.08267 70.6372 8.2V11.752L73.5972 8.104C73.6398 8.04 73.7092 7.976 73.8052 7.912C73.9118 7.83733 74.0505 7.8 74.2212 7.8H76.5252C76.6212 7.8 76.7012 7.83733 76.7652 7.912C76.8292 7.976 76.8612 8.05067 76.8612 8.136C76.8612 8.21067 76.8452 8.27467 76.8132 8.328L72.9732 13.16L77.1012 18.472C77.1438 18.5147 77.1652 18.5787 77.1652 18.664C77.1652 18.7493 77.1332 18.8293 77.0692 18.904C77.0052 18.968 76.9252 19 76.8292 19H74.4452C74.2532 19 74.1038 18.9573 73.9972 18.872C73.9012 18.7867 73.8372 18.7227 73.8052 18.68L70.6372 14.728V18.6C70.6372 18.7067 70.5998 18.8027 70.5252 18.888C70.4505 18.9627 70.3545 19 70.2372 19H68.2212ZM81.5185 18.472C81.4012 18.472 81.3052 18.4347 81.2305 18.36C81.1559 18.2747 81.1185 18.1787 81.1185 18.072V15.144H78.2705C78.1532 15.144 78.0519 15.1067 77.9665 15.032C77.8919 14.9573 77.8545 14.8613 77.8545 14.744V13.576C77.8545 13.4587 77.8919 13.3627 77.9665 13.288C78.0519 13.2027 78.1532 13.16 78.2705 13.16H81.1185V10.328C81.1185 10.2107 81.1559 10.1147 81.2305 10.04C81.3052 9.96533 81.4012 9.928 81.5185 9.928H82.8305C82.9372 9.928 83.0279 9.96533 83.1025 10.04C83.1879 10.1147 83.2305 10.2107 83.2305 10.328V13.16H86.0625C86.1799 13.16 86.2759 13.2027 86.3505 13.288C86.4252 13.3627 86.4625 13.4587 86.4625 13.576V14.744C86.4625 14.8613 86.4252 14.9573 86.3505 15.032C86.2759 15.1067 86.1799 15.144 86.0625 15.144H83.2305V18.072C83.2305 18.1787 83.1879 18.2747 83.1025 18.36C83.0279 18.4347 82.9372 18.472 82.8305 18.472H81.5185ZM96.1475 19.16C95.1449 19.16 94.2809 18.9947 93.5555 18.664C92.8302 18.3333 92.2649 17.848 91.8595 17.208C91.4649 16.568 91.2462 15.7733 91.2035 14.824C91.1929 14.3867 91.1875 13.9173 91.1875 13.416C91.1875 12.9147 91.1929 12.4347 91.2035 11.976C91.2462 11.048 91.4702 10.2587 91.8755 9.608C92.2809 8.95733 92.8462 8.46667 93.5715 8.136C94.2969 7.80533 95.1555 7.64 96.1475 7.64C96.8515 7.64 97.5022 7.73067 98.0995 7.912C98.6969 8.08267 99.2195 8.33867 99.6675 8.68C100.116 9.01067 100.462 9.416 100.708 9.896C100.964 10.3653 101.097 10.8987 101.108 11.496C101.118 11.592 101.086 11.672 101.012 11.736C100.948 11.8 100.868 11.832 100.772 11.832H98.6115C98.4729 11.832 98.3662 11.8053 98.2915 11.752C98.2169 11.688 98.1529 11.576 98.0995 11.416C97.9502 10.8507 97.7049 10.4667 97.3635 10.264C97.0329 10.0507 96.6222 9.944 96.1315 9.944C95.5449 9.944 95.0809 10.1093 94.7395 10.44C94.3982 10.76 94.2115 11.2987 94.1795 12.056C94.1475 12.9307 94.1475 13.8267 94.1795 14.744C94.2115 15.5013 94.3982 16.0453 94.7395 16.376C95.0809 16.696 95.5449 16.856 96.1315 16.856C96.6222 16.856 97.0382 16.7493 97.3795 16.536C97.7209 16.3227 97.9609 15.9387 98.0995 15.384C98.1422 15.224 98.2009 15.1173 98.2755 15.064C98.3609 15 98.4729 14.968 98.6115 14.968H100.772C100.868 14.968 100.948 15 101.012 15.064C101.086 15.128 101.118 15.208 101.108 15.304C101.097 15.9013 100.964 16.44 100.708 16.92C100.462 17.3893 100.116 17.7947 99.6675 18.136C99.2195 18.4667 98.6969 18.7227 98.0995 18.904C97.5022 19.0747 96.8515 19.16 96.1475 19.16ZM106.55 19.16C105.654 19.16 104.897 19.016 104.278 18.728C103.67 18.44 103.201 18.0293 102.87 17.496C102.55 16.952 102.369 16.3067 102.326 15.56C102.315 15.3467 102.31 15.1067 102.31 14.84C102.31 14.5627 102.315 14.3227 102.326 14.12C102.369 13.3627 102.561 12.7173 102.902 12.184C103.243 11.6507 103.718 11.24 104.326 10.952C104.945 10.664 105.686 10.52 106.55 10.52C107.425 10.52 108.166 10.664 108.774 10.952C109.393 11.24 109.873 11.6507 110.214 12.184C110.555 12.7173 110.747 13.3627 110.79 14.12C110.801 14.3227 110.806 14.5627 110.806 14.84C110.806 15.1067 110.801 15.3467 110.79 15.56C110.747 16.3067 110.561 16.952 110.23 17.496C109.91 18.0293 109.441 18.44 108.822 18.728C108.214 19.016 107.457 19.16 106.55 19.16ZM106.55 17.208C107.03 17.208 107.377 17.064 107.59 16.776C107.814 16.488 107.942 16.056 107.974 15.48C107.985 15.32 107.99 15.1067 107.99 14.84C107.99 14.5733 107.985 14.36 107.974 14.2C107.942 13.6347 107.814 13.208 107.59 12.92C107.377 12.6213 107.03 12.472 106.55 12.472C106.091 12.472 105.745 12.6213 105.51 12.92C105.286 13.208 105.163 13.6347 105.142 14.2C105.131 14.36 105.126 14.5733 105.126 14.84C105.126 15.1067 105.131 15.32 105.142 15.48C105.163 16.056 105.286 16.488 105.51 16.776C105.745 17.064 106.091 17.208 106.55 17.208ZM115.451 19.16C114.843 19.16 114.299 19.0213 113.819 18.744C113.35 18.4667 112.982 18.0613 112.715 17.528C112.449 16.984 112.315 16.3227 112.315 15.544V11.08C112.315 10.9627 112.353 10.8667 112.427 10.792C112.502 10.7173 112.598 10.68 112.715 10.68H114.715C114.833 10.68 114.929 10.7173 115.003 10.792C115.089 10.8667 115.131 10.9627 115.131 11.08V15.448C115.131 16.4933 115.595 17.016 116.523 17.016C116.961 17.016 117.307 16.8827 117.563 16.616C117.83 16.3387 117.963 15.9493 117.963 15.448V11.08C117.963 10.9627 118.001 10.8667 118.075 10.792C118.15 10.7173 118.246 10.68 118.363 10.68H120.363C120.481 10.68 120.577 10.7173 120.651 10.792C120.726 10.8667 120.763 10.9627 120.763 11.08V18.6C120.763 18.7067 120.726 18.8027 120.651 18.888C120.577 18.9627 120.481 19 120.363 19H118.507C118.401 19 118.305 18.9627 118.219 18.888C118.145 18.8027 118.107 18.7067 118.107 18.6V17.992C117.83 18.376 117.467 18.6693 117.019 18.872C116.582 19.064 116.059 19.16 115.451 19.16ZM123.045 19C122.928 19 122.832 18.9627 122.757 18.888C122.683 18.8027 122.645 18.7067 122.645 18.6V11.08C122.645 10.9733 122.683 10.8827 122.757 10.808C122.832 10.7227 122.928 10.68 123.045 10.68H124.885C125.003 10.68 125.099 10.7227 125.173 10.808C125.259 10.8827 125.301 10.9733 125.301 11.08V11.72C125.579 11.3893 125.915 11.1333 126.309 10.952C126.715 10.7707 127.168 10.68 127.669 10.68H128.373C128.491 10.68 128.587 10.7173 128.661 10.792C128.736 10.8667 128.773 10.9627 128.773 11.08V12.728C128.773 12.8347 128.736 12.9307 128.661 13.016C128.587 13.0907 128.491 13.128 128.373 13.128H126.821C126.384 13.128 126.043 13.2507 125.797 13.496C125.563 13.7307 125.445 14.0667 125.445 14.504V18.6C125.445 18.7067 125.403 18.8027 125.317 18.888C125.243 18.9627 125.147 19 125.029 19H123.045ZM133.335 19.16C132.641 19.16 132.049 19.0853 131.559 18.936C131.079 18.776 130.684 18.584 130.375 18.36C130.076 18.136 129.852 17.9067 129.703 17.672C129.553 17.4267 129.473 17.2133 129.463 17.032C129.452 16.9147 129.489 16.8187 129.575 16.744C129.66 16.6693 129.751 16.632 129.847 16.632H131.671C131.703 16.632 131.729 16.6373 131.751 16.648C131.783 16.6587 131.815 16.68 131.847 16.712C131.985 16.7867 132.124 16.8827 132.263 17C132.401 17.1067 132.561 17.2027 132.743 17.288C132.924 17.3733 133.143 17.416 133.399 17.416C133.697 17.416 133.948 17.3573 134.151 17.24C134.353 17.112 134.455 16.936 134.455 16.712C134.455 16.5413 134.407 16.4027 134.311 16.296C134.215 16.1787 134.017 16.0667 133.719 15.96C133.431 15.8533 132.993 15.7467 132.407 15.64C131.852 15.512 131.367 15.3467 130.951 15.144C130.535 14.9307 130.215 14.6587 129.991 14.328C129.767 13.9867 129.655 13.576 129.655 13.096C129.655 12.6693 129.793 12.2587 130.071 11.864C130.348 11.4693 130.753 11.1493 131.287 10.904C131.82 10.648 132.481 10.52 133.271 10.52C133.879 10.52 134.412 10.5947 134.871 10.744C135.329 10.8827 135.713 11.064 136.023 11.288C136.332 11.512 136.567 11.7413 136.727 11.976C136.887 12.2107 136.972 12.424 136.983 12.616C136.993 12.7227 136.961 12.8187 136.887 12.904C136.812 12.9787 136.727 13.016 136.631 13.016H134.967C134.924 13.016 134.881 13.0107 134.839 13C134.796 12.9787 134.759 12.9573 134.727 12.936C134.599 12.872 134.471 12.7867 134.343 12.68C134.215 12.5733 134.065 12.4773 133.895 12.392C133.724 12.3067 133.511 12.264 133.255 12.264C132.967 12.264 132.743 12.328 132.583 12.456C132.423 12.584 132.343 12.7493 132.343 12.952C132.343 13.0907 132.385 13.2187 132.471 13.336C132.567 13.4533 132.753 13.56 133.031 13.656C133.319 13.752 133.761 13.8587 134.359 13.976C135.095 14.0933 135.681 14.2853 136.119 14.552C136.556 14.808 136.865 15.112 137.047 15.464C137.239 15.8053 137.335 16.168 137.335 16.552C137.335 17.064 137.18 17.5173 136.871 17.912C136.561 18.3067 136.108 18.616 135.511 18.84C134.924 19.0533 134.199 19.16 133.335 19.16ZM142.595 19.16C141.336 19.16 140.333 18.8187 139.587 18.136C138.84 17.4533 138.451 16.44 138.419 15.096C138.419 15.0213 138.419 14.9253 138.419 14.808C138.419 14.6907 138.419 14.6 138.419 14.536C138.451 13.6933 138.637 12.9733 138.979 12.376C139.331 11.768 139.811 11.3093 140.419 11C141.037 10.68 141.757 10.52 142.579 10.52C143.517 10.52 144.291 10.7067 144.899 11.08C145.517 11.4533 145.981 11.96 146.291 12.6C146.6 13.24 146.755 13.9707 146.755 14.792V15.176C146.755 15.2933 146.717 15.3893 146.643 15.464C146.568 15.5387 146.472 15.576 146.355 15.576H141.235C141.235 15.5867 141.235 15.6027 141.235 15.624C141.235 15.6453 141.235 15.6667 141.235 15.688C141.245 15.9973 141.299 16.28 141.395 16.536C141.501 16.792 141.651 16.9947 141.843 17.144C142.045 17.2933 142.291 17.368 142.579 17.368C142.792 17.368 142.968 17.336 143.107 17.272C143.256 17.1973 143.379 17.1173 143.475 17.032C143.571 16.936 143.645 16.856 143.699 16.792C143.795 16.6747 143.869 16.6053 143.923 16.584C143.987 16.552 144.083 16.536 144.211 16.536H146.195C146.301 16.536 146.387 16.568 146.451 16.632C146.525 16.696 146.557 16.7813 146.547 16.888C146.536 17.0693 146.445 17.288 146.275 17.544C146.104 17.8 145.853 18.056 145.523 18.312C145.203 18.5573 144.797 18.76 144.307 18.92C143.816 19.08 143.245 19.16 142.595 19.16ZM141.235 13.992H143.939V13.96C143.939 13.608 143.885 13.3093 143.779 13.064C143.683 12.808 143.528 12.6107 143.315 12.472C143.112 12.3333 142.867 12.264 142.579 12.264C142.301 12.264 142.061 12.3333 141.859 12.472C141.656 12.6107 141.501 12.808 141.395 13.064C141.288 13.3093 141.235 13.608 141.235 13.96V13.992ZM151.679 19.16C150.985 19.16 150.393 19.0853 149.903 18.936C149.423 18.776 149.028 18.584 148.719 18.36C148.42 18.136 148.196 17.9067 148.047 17.672C147.897 17.4267 147.817 17.2133 147.807 17.032C147.796 16.9147 147.833 16.8187 147.919 16.744C148.004 16.6693 148.095 16.632 148.191 16.632H150.015C150.047 16.632 150.073 16.6373 150.095 16.648C150.127 16.6587 150.159 16.68 150.191 16.712C150.329 16.7867 150.468 16.8827 150.607 17C150.745 17.1067 150.905 17.2027 151.087 17.288C151.268 17.3733 151.487 17.416 151.743 17.416C152.041 17.416 152.292 17.3573 152.495 17.24C152.697 17.112 152.799 16.936 152.799 16.712C152.799 16.5413 152.751 16.4027 152.655 16.296C152.559 16.1787 152.361 16.0667 152.063 15.96C151.775 15.8533 151.337 15.7467 150.751 15.64C150.196 15.512 149.711 15.3467 149.295 15.144C148.879 14.9307 148.559 14.6587 148.335 14.328C148.111 13.9867 147.999 13.576 147.999 13.096C147.999 12.6693 148.137 12.2587 148.415 11.864C148.692 11.4693 149.097 11.1493 149.631 10.904C150.164 10.648 150.825 10.52 151.615 10.52C152.223 10.52 152.756 10.5947 153.215 10.744C153.673 10.8827 154.057 11.064 154.367 11.288C154.676 11.512 154.911 11.7413 155.071 11.976C155.231 12.2107 155.316 12.424 155.327 12.616C155.337 12.7227 155.305 12.8187 155.231 12.904C155.156 12.9787 155.071 13.016 154.975 13.016H153.311C153.268 13.016 153.225 13.0107 153.183 13C153.14 12.9787 153.103 12.9573 153.071 12.936C152.943 12.872 152.815 12.7867 152.687 12.68C152.559 12.5733 152.409 12.4773 152.239 12.392C152.068 12.3067 151.855 12.264 151.599 12.264C151.311 12.264 151.087 12.328 150.927 12.456C150.767 12.584 150.687 12.7493 150.687 12.952C150.687 13.0907 150.729 13.2187 150.815 13.336C150.911 13.4533 151.097 13.56 151.375 13.656C151.663 13.752 152.105 13.8587 152.703 13.976C153.439 14.0933 154.025 14.2853 154.463 14.552C154.9 14.808 155.209 15.112 155.391 15.464C155.583 15.8053 155.679 16.168 155.679 16.552C155.679 17.064 155.524 17.5173 155.215 17.912C154.905 18.3067 154.452 18.616 153.855 18.84C153.268 19.0533 152.543 19.16 151.679 19.16Z" fill="white"/>
<path fill-rule="evenodd" clip-rule="evenodd" d="M5.66463 6.99992H3.3313V23.3333C3.3313 24.6166 4.3813 25.6666 5.66463 25.6666H21.998V23.3333H5.66463V6.99992ZM24.3313 2.33325H10.3313C9.04797 2.33325 7.99797 3.38325 7.99797 4.66659V18.6666C7.99797 19.9499 9.04797 20.9999 10.3313 20.9999H24.3313C25.6146 20.9999 26.6646 19.9499 26.6646 18.6666V4.66659C26.6646 3.38325 25.6146 2.33325 24.3313 2.33325ZM24.3313 18.6666H10.3313V4.66659H24.3313V18.6666ZM14.998 6.41659V16.9166L21.998 11.6666L14.998 6.41659Z" fill="white"/>
</svg>
